<?xml version="1.0" encoding="UTF-8" standalone="no"?>
<!-- Created with Inkscape (http://www.inkscape.org/) -->

<svg
   xmlns:dc="http://purl.org/dc/elements/1.1/"
   xmlns:cc="http://creativecommons.org/ns#"
   xmlns:rdf="http://www.w3.org/1999/02/22-rdf-syntax-ns#"
   xmlns:svg="http://www.w3.org/2000/svg"
   xmlns="http://www.w3.org/2000/svg"
   xmlns:sodipodi="http://sodipodi.sourceforge.net/DTD/sodipodi-0.dtd"
   xmlns:inkscape="http://www.inkscape.org/namespaces/inkscape"
   width="661.69641"
   height="508.83325"
   viewBox="0 0 661.69643 508.83324"
   id="svg2"
   version="1.1"
   inkscape:version="0.91 r13725"
   sodipodi:docname="lesKeeps.svg">
  <defs
     id="defs4">
    <filter
       inkscape:collect="always"
       style="color-interpolation-filters:sRGB"
       id="filter4345"
       x="-0.019731667"
       width="1.0394633"
       y="-0.030624703"
       height="1.0612494">
      <feGaussianBlur
         inkscape:collect="always"
         stdDeviation="6.4363226"
         id="feGaussianBlur4347" />
    </filter>
  </defs>
  <sodipodi:namedview
     id="base"
     pagecolor="#ffffff"
     bordercolor="#666666"
     borderopacity="1.0"
     inkscape:pageopacity="0.0"
     inkscape:pageshadow="2"
     inkscape:zoom="0.98994949"
     inkscape:cx="421.98541"
     inkscape:cy="255.55114"
     inkscape:document-units="px"
     inkscape:current-layer="layer2"
     showgrid="false"
     inkscape:window-width="1855"
     inkscape:window-height="1176"
     inkscape:window-x="65"
     inkscape:window-y="24"
     inkscape:window-maximized="1"
     fit-margin-top="0"
     fit-margin-left="0"
     fit-margin-right="0"
     fit-margin-bottom="0"
     units="px" />
  <metadata
     id="metadata7">
    <rdf:RDF>
      <cc:Work
         rdf:about="">
        <dc:format>image/svg+xml</dc:format>
        <dc:type
           rdf:resource="http://purl.org/dc/dcmitype/StillImage" />
        <dc:title></dc:title>
      </cc:Work>
    </rdf:RDF>
  </metadata>
  <g
     inkscape:groupmode="layer"
     id="layer7"
     inkscape:label="badge"
     style="display:inline"
     transform="translate(-23.715314,-210.0368)">
    <path
       style="fill:#000000;fill-opacity:0.96078431;stroke:none;stroke-width:1.87100005;stroke-linecap:round;stroke-linejoin:round;stroke-miterlimit:4;stroke-dasharray:none;stroke-opacity:1;filter:url(#filter4345)"
       id="path4324-1"
       sodipodi:type="arc"
       sodipodi:cx="73.233849"
       sodipodi:cy="759.65845"
       sodipodi:rx="429.31482"
       sodipodi:ry="180.31223"
       sodipodi:start="0"
       sodipodi:end="6.2805408"
       d="M 502.54867,759.65845 A 429.31482,180.31223 0 0 1 73.51768,939.97063 429.31482,180.31223 0 0 1 -356.0806,759.89687 429.31482,180.31223 0 0 1 72.382355,579.34658 429.31482,180.31223 0 0 1 502.54717,759.18161 l -429.313321,0.47684 z"
       transform="matrix(0.60887393,-0.30902555,0.30902555,0.60887393,75.219493,24.548337)"
       inkscape:export-xdpi="94"
       inkscape:export-ydpi="94" />
    <path
       style="fill:#ffffff;fill-opacity:0.96078431;stroke:#0000c6;stroke-width:1.27753031;stroke-linecap:round;stroke-linejoin:round;stroke-miterlimit:4;stroke-dasharray:none;stroke-opacity:1"
       id="path4324"
       sodipodi:type="arc"
       sodipodi:cx="101.52643"
       sodipodi:cy="569.67059"
       sodipodi:rx="293.13879"
       sodipodi:ry="123.1183"
       sodipodi:start="0"
       sodipodi:end="6.2804365"
       d="M 394.66522,569.67059 A 293.13879,123.1183 0 0 1 101.72787,692.78887 293.13879,123.1183 0 0 1 -191.61209,569.83981 293.13879,123.1183 0 0 1 100.92209,446.55255 293.13879,123.1183 0 0 1 394.66411,569.33217"
       transform="matrix(0.89172296,-0.45258167,0.45258167,0.89172296,0,0)"
       sodipodi:open="true"
       inkscape:export-xdpi="94"
       inkscape:export-ydpi="94" />
  </g>
  <g
     inkscape:groupmode="layer"
     id="layer2"
     inkscape:label="Texte"
     style="display:inline"
     transform="translate(-23.715314,-210.0368)">
    <path
       style="display:inline;fill:#e9000b;fill-opacity:1;stroke:#e9000b;stroke-width:1.83323514;stroke-miterlimit:4;stroke-dasharray:none;stroke-opacity:1"
       id="path4146-0"
       d="m 162.66836,624.71283 c 0,0 12.77058,-8.67063 19.33111,-12.73155 2.46206,-1.52399 4.98572,-2.94715 7.51185,-4.36241 12.58939,-7.05318 25.72981,-13.36045 39.14459,-18.79722 6.36846,-2.58102 10.60733,-4.48557 19.55256,-6.53207 23.65455,-5.41171 31.10441,-6.48191 38.71282,-7.36997 5.99924,-0.70023 10.69838,-1.02304 18.06944,-1.35166 10.9944,-0.49014 21.88117,1.22897 32.42793,3.93607 4.25855,1.09307 6.75603,3.1643 12.24046,4.91337 7.15046,2.28038 -39.42836,-44.39508 -32.08261,-42.67558 2.83467,0.66355 5.69644,1.23374 8.57369,1.71452 7.86444,1.31413 12.00815,1.56018 20.01202,2.31987 13.62373,0.98957 27.63774,1.01986 40.67361,-3.34643 8.77673,-2.93972 10.05182,-4.16298 17.35449,-8.49097 3.5519,-2.57579 7.24224,-4.99532 10.65572,-7.72735 21.43734,-17.15775 37.51688,-39.11643 53.75076,-60.38384 14.25129,-19.06756 28.34159,-38.24516 43.19919,-56.9147 5.76442,-7.24335 15.08225,-18.60302 20.97875,-25.82062 12.71038,-15.13636 6.43107,-7.88569 18.79634,-21.78296 l 2.86214,-1.12749 0,0 c -12.76903,14.0207 -6.31749,6.70782 -19.30912,21.97313 -6.22544,7.57522 -15.04957,18.26286 -21.14383,25.88169 -14.93871,18.67588 -29.13716,37.84771 -43.37818,56.9825 -8.24459,11.00153 -12.59211,17.07287 -21.23803,27.5965 -9.5305,11.60031 -19.62741,22.82972 -31.48787,32.47041 -3.33808,2.71332 -6.95127,5.12093 -10.42691,7.6814 -9.38473,5.31888 -13.78462,8.55041 -23.66656,11.83651 -13.06709,4.34528 -27.10633,4.20149 -40.74368,3.23276 -7.63007,-0.69418 -12.73201,-1.03466 -20.26795,-2.20031 -2.93908,-0.45461 -5.86828,-0.98076 -8.76444,-1.63036 -7.37497,-1.65419 41.65964,44.45858 34.50214,42.17765 -5.4119,-1.72465 -9.64868,-3.36469 -14.63484,-4.41365 -10.58006,-2.22577 -21.19773,-4.40793 -32.19468,-3.94053 -7.34,0.31198 -12.00897,0.52795 -17.96082,1.30849 -12.9661,1.70039 -25.9931,3.68684 -38.53959,7.33488 -3.28715,0.95578 -6.57403,1.9229 -9.80702,3.04836 -6.48741,2.25839 -12.89654,4.75041 -19.22344,7.42572 -3.10613,1.31342 -6.13922,2.79378 -9.19003,4.23104 -1.82217,0.85845 -3.65097,1.70486 -5.44361,2.62336 -2.75177,1.40994 -5.45532,2.9132 -8.14958,4.43016 -2.46398,1.3873 -4.928,2.77877 -7.32327,4.28159 -6.17236,3.8726 -12.29601,7.87758 -18.14479,12.19107 z"
       inkscape:connector-curvature="0"
       sodipodi:nodetypes="casasssassscscscscccccscsscscsssasasaaaasacc"
       inkscape:export-xdpi="94"
       inkscape:export-ydpi="94" />
    <path
       sodipodi:type="star"
       style="fill:#e9000b;fill-opacity:0.95846647;stroke:#0000c6;stroke-width:0.45129463;stroke-miterlimit:4;stroke-dasharray:none;stroke-opacity:1"
       id="path4255"
       sodipodi:sides="5"
       sodipodi:cx="495.68045"
       sodipodi:cy="344.16464"
       sodipodi:r1="7.5215778"
       sodipodi:r2="3.7607889"
       sodipodi:arg1="0.64350111"
       sodipodi:arg2="1.2718196"
       inkscape:flatsided="false"
       inkscape:rounded="0"
       inkscape:randomized="0"
       d="m 501.69771,348.67759 -4.90955,-0.91899 -3.54034,3.52338 -0.64312,-4.95325 -4.44496,-2.27828 4.51208,-2.14228 0.79321,-4.93144 3.43174,3.62925 4.93518,-0.76952 -2.39114,4.38528 z"
       inkscape:transform-center-x="0.68457705"
       inkscape:transform-center-y="-0.035308023"
       inkscape:export-xdpi="94"
       inkscape:export-ydpi="94" />
    <path
       sodipodi:type="star"
       style="display:inline;fill:#e9000b;fill-opacity:0.95846647;stroke:#0000c6;stroke-width:0.71762925;stroke-miterlimit:4;stroke-dasharray:none;stroke-opacity:1"
       id="path4255-8"
       sodipodi:sides="5"
       sodipodi:cx="519.26605"
       sodipodi:cy="319.56866"
       sodipodi:r1="8.5450745"
       sodipodi:r2="4.2725372"
       sodipodi:arg1="0.64350111"
       sodipodi:arg2="1.2718196"
       inkscape:flatsided="false"
       inkscape:rounded="0"
       inkscape:randomized="0"
       d="m 526.10211,324.69571 -5.57761,-1.04404 -4.0221,4.00282 -0.73063,-5.62726 -5.04981,-2.5883 5.12606,-2.43379 0.90115,-5.60248 3.89871,4.12309 5.60674,-0.87422 -2.71652,4.982 z"
       inkscape:transform-center-x="0.77773218"
       inkscape:transform-center-y="-0.040090214"
       inkscape:export-xdpi="94"
       inkscape:export-ydpi="94" />
    <path
       sodipodi:type="star"
       style="display:inline;fill:#e9000b;fill-opacity:0.95686275;stroke:#0000c6;stroke-width:1.05611157;stroke-miterlimit:4;stroke-dasharray:none;stroke-opacity:1"
       id="path4255-7"
       sodipodi:sides="5"
       sodipodi:cx="476.46255"
       sodipodi:cy="314.88486"
       sodipodi:r1="10.561116"
       sodipodi:r2="5.2805576"
       sodipodi:arg1="0.64350111"
       sodipodi:arg2="1.2718196"
       inkscape:flatsided="false"
       inkscape:rounded="0"
       inkscape:randomized="0"
       d="m 484.91145,321.22153 -6.89355,-1.29037 -4.97102,4.94721 -0.90302,-6.95489 -6.2412,-3.19896 6.33545,-3.008 1.11375,-6.92427 4.81853,5.09585 6.92955,-1.08048 -3.35744,6.15741 z"
       inkscape:transform-center-x="0.96126926"
       inkscape:transform-center-y="-0.049563937"
       inkscape:export-xdpi="94"
       inkscape:export-ydpi="94" />
    <path
       sodipodi:type="star"
       style="display:inline;fill:#e9000b;fill-opacity:0.95846647;stroke:#0000c6;stroke-width:0.66593552;stroke-miterlimit:4;stroke-dasharray:none;stroke-opacity:1"
       id="path4255-8-0"
       sodipodi:sides="5"
       sodipodi:cx="-136.22507"
       sodipodi:cy="674.30719"
       sodipodi:r1="7.9295378"
       sodipodi:r2="3.9647689"
       sodipodi:arg1="0.64350111"
       sodipodi:arg2="1.2718196"
       inkscape:flatsided="false"
       inkscape:rounded="0"
       inkscape:randomized="0"
       d="m -129.88144,679.06491 -5.17583,-0.96883 -3.73237,3.71448 -0.678,-5.2219 -4.68605,-2.40186 4.75681,-2.25847 0.83623,-5.19891 3.61787,3.82609 5.20287,-0.81125 -2.52085,4.62312 z"
       inkscape:transform-center-x="-0.24604203"
       inkscape:transform-center-y="0.27736896"
       transform="matrix(-0.32489408,0.60055648,0.60055648,0.32489408,-287.99176,340.73135)"
       inkscape:export-xdpi="94"
       inkscape:export-ydpi="94" />
    <path
       sodipodi:type="star"
       style="display:inline;fill:#e9000b;fill-opacity:0.95686275;stroke:#0000c6;stroke-width:0.98003554;stroke-miterlimit:4;stroke-dasharray:none;stroke-opacity:1"
       id="path4255-7-5"
       sodipodi:sides="5"
       sodipodi:cx="-175.94516"
       sodipodi:cy="669.96082"
       sodipodi:r1="9.800355"
       sodipodi:r2="4.9001775"
       sodipodi:arg1="0.64350111"
       sodipodi:arg2="1.2718196"
       inkscape:flatsided="false"
       inkscape:rounded="0"
       inkscape:randomized="0"
       d="m -168.10488,675.84103 -6.39697,-1.19742 -4.61294,4.59084 -0.83797,-6.4539 -5.79163,-2.96852 5.87909,-2.79132 1.03352,-6.42549 4.47144,4.72878 6.43038,-1.00265 -3.11559,5.71386 z"
       inkscape:transform-center-x="-0.30410853"
       inkscape:transform-center-y="0.34282638"
       transform="matrix(-0.32489408,0.60055648,0.60055648,0.32489408,-270.40517,372.71035)"
       inkscape:export-xdpi="94"
       inkscape:export-ydpi="94" />
    <text
       xml:space="preserve"
       style="font-style:italic;font-variant:normal;font-weight:500;font-stretch:normal;font-size:115.06636047px;line-height:125%;font-family:'URW Chancery L';-inkscape-font-specification:'URW Chancery L Medium Italic';letter-spacing:0px;word-spacing:0px;display:inline;fill:#0000c6;fill-opacity:1;fill-rule:nonzero;stroke:#e9000b;stroke-width:1.50011659;stroke-linecap:butt;stroke-linejoin:miter;stroke-miterlimit:4;stroke-dasharray:none;stroke-opacity:1"
       x="-165.64641"
       y="598.73029"
       id="text5998"
       sodipodi:linespacing="125%"
       transform="matrix(0.87695268,-0.48057673,0.48057673,0.87695268,0,0)"><tspan
         sodipodi:role="line"
         id="tspan6000"
         x="-165.64641"
         y="598.73029">Les Keeps</tspan></text>
  </g>
</svg>
