<?xml version="1.0" encoding="UTF-8" standalone="no"?>
<!-- Created with Inkscape (http://www.inkscape.org/) -->

<svg
   xmlns:dc="http://purl.org/dc/elements/1.1/"
   xmlns:cc="http://creativecommons.org/ns#"
   xmlns:rdf="http://www.w3.org/1999/02/22-rdf-syntax-ns#"
   xmlns:svg="http://www.w3.org/2000/svg"
   xmlns="http://www.w3.org/2000/svg"
   xmlns:sodipodi="http://sodipodi.sourceforge.net/DTD/sodipodi-0.dtd"
   xmlns:inkscape="http://www.inkscape.org/namespaces/inkscape"
   id="svg2"
   version="1.1"
   inkscape:version="0.91 r13725"
   width="64.011383"
   height="64.011383"
   viewBox="0 0 64.011383 64.011383"
   sodipodi:docname="quizzy.svg">
  <metadata
     id="metadata8">
    <rdf:RDF>
      <cc:Work
         rdf:about="">
        <dc:format>image/svg+xml</dc:format>
        <dc:type
           rdf:resource="http://purl.org/dc/dcmitype/StillImage" />
        <dc:title></dc:title>
      </cc:Work>
    </rdf:RDF>
  </metadata>
  <defs
     id="defs6" />
  <sodipodi:namedview
     pagecolor="#ffffff"
     bordercolor="#666666"
     borderopacity="1"
     objecttolerance="10"
     gridtolerance="10"
     guidetolerance="10"
     inkscape:pageopacity="0"
     inkscape:pageshadow="2"
     inkscape:window-width="765"
     inkscape:window-height="668"
     id="namedview4"
     showgrid="false"
     inkscape:zoom="3.6868443"
     inkscape:cx="32.005692"
     inkscape:cy="32.005692"
     inkscape:window-x="65"
     inkscape:window-y="24"
     inkscape:window-maximized="0"
     inkscape:current-layer="svg2" />
  <path
     style="fill:#000000"
     d="m 11.899262,60.187234 c -0.249023,-0.402926 -0.273485,-1.022679 -0.05436,-1.377228 0.219124,-0.354549 -0.05193,-0.817444 -0.602336,-1.028656 -1.195904,-0.458911 -1.3263984,-1.952154 -0.203315,-2.326515 0.438585,-0.146195 0.798649,-0.818315 0.800142,-1.4936 0.0019,-0.852254 0.523364,-1.288027 1.704948,-1.424731 l 1.702233,-0.196942 -1.544357,-2.683571 C 12.852819,48.180028 11.85199,45.863696 11.478151,44.508587 10.828811,42.154834 10.703739,42.06252 8.6787776,42.442405 5.9848342,42.947791 3.2005691,41.916558 3.2005691,40.41339 c 0,-0.632362 1.4401571,-3.12517 3.200349,-5.539574 3.4087235,-4.675646 4.7817799,-8.306739 5.7813679,-15.289011 0.342002,-2.388936 1.025496,-5.309649 1.518877,-6.490475 1.33663,-3.1990061 5.321498,-7.2876661 8.98226,-9.2162141 2.852343,-1.502662 3.970732,-1.707511 9.322268,-1.707511 5.351537,0 6.469926,0.204849 9.322269,1.707511 3.758191,1.979876 7.502917,5.873112 8.92671,9.2807311 0.547252,1.309755 1.265283,4.268697 1.595626,6.575425 0.977964,6.828961 2.371334,10.491179 5.760169,15.139544 1.760192,2.414404 3.200349,4.907212 3.200349,5.539574 0,1.503168 -2.784265,2.534401 -5.478208,2.029015 -2.024962,-0.379885 -2.150034,-0.287571 -2.799374,2.066182 -0.373839,1.355109 -1.374668,3.671441 -2.224064,5.147404 l -1.544357,2.683571 1.702233,0.196942 c 1.181584,0.136704 1.703063,0.572477 1.704948,1.424731 0.0015,0.675285 0.361557,1.347405 0.800142,1.4936 1.03231,0.344102 1.03231,1.894485 0,2.238588 -0.438585,0.146195 -0.798649,0.818314 -0.800142,1.493599 -0.0026,1.150335 -0.497114,1.219668 -7.839746,1.099054 C 40.021879,60.215266 35.479544,59.8769 34.23817,59.53414 32.831431,59.145721 31.206524,59.133092 29.925031,59.50062 26.458822,60.494716 12.419793,61.029473 11.899262,60.187234 Z m 17.381522,-2.442273 c 2.38083,-0.575757 0.936334,-1.490889 -2.353301,-1.490889 -1.695272,0 -4.306949,-0.432077 -5.803727,-0.960171 -4.019559,-1.418183 -6.810639,-1.271056 -7.24287,0.381797 -0.801123,3.063502 -0.120948,3.334192 7.182292,2.858354 3.729975,-0.243025 7.427898,-0.598116 8.217606,-0.789091 z m 20.855885,0.171136 c 0.189618,-0.494138 0.186841,-1.502317 -0.0061,-2.240399 -0.432258,-1.652853 -3.223338,-1.79998 -7.242897,-0.381797 -1.496778,0.528094 -4.108455,0.960171 -5.803727,0.960171 -1.695272,0 -3.251342,0.273497 -3.457935,0.607771 -0.537316,0.869396 4.460828,1.603993 12.553774,1.845079 2.586593,0.07705 3.710055,-0.14748 3.95693,-0.790825 z m -8.332963,-4.30172 c 3.41726,-0.883178 7.167376,-4.484281 8.446926,-8.111285 1.606193,-4.552903 2.003897,-15.618289 0.716332,-19.930637 -0.570947,-1.912229 -1.038085,-4.381363 -1.038085,-5.486967 0,-5.524711 -3.806348,-11.4305721 -9.18639,-14.2534371 -2.82996,-1.484858 -4.064918,-1.729296 -8.736798,-1.729296 -4.671879,0 -5.906837,0.244438 -8.736797,1.729296 -5.380042,2.822865 -9.18639,8.7287261 -9.18639,14.2534371 0,1.105604 -0.467138,3.574738 -1.038085,5.486967 -1.284711,4.302788 -0.899665,15.4279 0.684963,19.79061 1.156672,3.184483 3.566777,6.029963 6.329016,7.472325 3.828392,1.999076 15.418006,2.414253 21.745308,0.778987 z m -10.66961,-6.001842 c -0.420332,-1.095366 0.119825,-2.880512 0.871595,-2.880512 0.751771,0 1.291928,1.785146 0.871596,2.880512 -0.202648,0.528094 -0.594867,0.960171 -0.871596,0.960171 -0.276728,0 -0.668947,-0.432077 -0.871595,-0.960171 z m -5.153094,-0.228814 c -0.663235,-1.073135 0.190702,-3.291812 1.266972,-3.291812 1.153957,0 1.179134,1.31721 0.05457,2.855139 -0.602538,0.82402 -1.000817,0.955622 -1.321545,0.436673 z M 36.113164,46.34797 c -0.231297,-0.921562 -0.218369,-1.877738 0.02873,-2.124836 0.547255,-0.547256 2.365899,1.806287 2.073529,2.683396 -0.453038,1.359114 -1.704399,1.026634 -2.102258,-0.55856 z M 21.236849,43.680433 c 0.247432,-1.257209 2.198625,-2.611088 2.839479,-1.970235 0.506625,0.506626 -1.539779,3.021825 -2.458603,3.021825 -0.323312,0 -0.494706,-0.473216 -0.380876,-1.05159 z m 19.406828,-0.232562 c -1.343923,-1.485018 -0.77199,-2.516691 0.834396,-1.50511 1.190405,0.749627 1.859922,2.789262 0.915585,2.789262 -0.323311,0 -1.110803,-0.577869 -1.749981,-1.284152 z M 17.975049,39.708018 c -0.945187,-1.7661 -0.821485,-9.58185 0.188963,-11.939012 0.580803,-1.35489 0.653588,-2.674276 0.247189,-4.480797 -0.84141,-3.740228 -0.04883,-7.756343 1.978491,-10.025311 2.192667,-2.454021 6.49754,-3.150548 9.589582,-1.551591 1.876661,0.970458 2.176174,0.970458 4.052835,0 1.385814,-0.716633 2.947512,-0.944081 4.940116,-0.719485 5.236489,0.590228 7.949889,5.416171 6.673842,11.869824 -0.431886,2.18428 -0.372669,3.551538 0.213334,4.925632 1.154142,2.706303 1.108063,10.62284 -0.0709,12.181575 -1.119105,1.479589 -1.146589,1.343321 -0.993998,-4.928328 0.08042,-3.305215 -0.193123,-5.494204 -0.8438,-6.752474 -0.766921,-1.483061 -0.830121,-2.483879 -0.310657,-4.919484 1.726489,-8.094968 -2.789148,-12.702763 -9.372234,-9.563508 -2.121265,1.011561 -2.402966,1.011561 -4.524231,0 -6.583086,-3.139255 -11.098723,1.46854 -9.372234,9.563508 0.519464,2.435605 0.456264,3.436423 -0.310657,4.919484 -0.677451,1.310045 -0.906417,3.349565 -0.772576,6.881734 0.20169,5.322758 -0.182518,6.650668 -1.31306,4.538233 z m 10.446005,-9.314545 c -1.197013,-1.197013 -2.176387,-2.57987 -2.176387,-3.073016 0,-0.493147 1.296231,-1.526388 2.880512,-2.29609 l 2.880512,-1.399462 2.880513,1.399462 c 1.584281,0.769702 2.880512,1.802943 2.880512,2.29609 0,1.416925 -4.206002,5.249403 -5.761025,5.249403 -0.774537,0 -2.387624,-0.979374 -3.584637,-2.176387 z m 5.594093,-1.023756 c 1.482971,-1.255919 1.487984,-1.297726 0.268626,-2.240398 -0.683399,-0.528328 -1.708536,-0.960597 -2.278082,-0.960597 -0.569545,0 -1.594682,0.432269 -2.278081,0.960597 -1.219358,0.942672 -1.214345,0.984479 0.268626,2.240398 0.831144,0.703891 1.735398,1.279801 2.009455,1.279801 0.274058,0 1.178312,-0.57591 2.009456,-1.279801 z m -8.385101,-6.690904 c -1.525087,-1.837617 0.578878,-4.656263 2.830652,-3.792176 2.328945,0.8937 1.570269,4.721629 -0.935803,4.721629 -0.617909,0 -1.470591,-0.418254 -1.894849,-0.929453 z m 8.961594,0 c -1.525087,-1.837617 0.578877,-4.656263 2.830652,-3.792176 2.328945,0.8937 1.570268,4.721629 -0.935804,4.721629 -0.617909,0 -1.47059,-0.418254 -1.894848,-0.929453 z M 10.118363,39.947941 c 0.109573,-0.109572 0.110164,-1.598427 0.0013,-3.308566 L 9.9217646,33.530031 7.5056707,36.683139 c -1.8100084,2.362141 -2.2114453,3.287044 -1.6002847,3.687025 0.7024483,0.459725 3.6238066,0.166948 4.212977,-0.422223 z m 47.987634,0.406051 c 0.609438,-0.386772 0.237685,-1.27489 -1.469578,-3.510824 -1.256963,-1.646194 -2.416217,-2.99308 -2.576122,-2.99308 -0.159904,0 -0.290735,1.419135 -0.290735,3.153633 0,2.465198 0.244538,3.217538 1.120199,3.446372 1.797647,0.469774 2.350621,0.453251 3.216236,-0.0961 z"
     id="path4138"
     inkscape:connector-curvature="0" />
</svg>
